<?xml version="1.0" standalone="no"?>
<!DOCTYPE svg PUBLIC "-//W3C//DTD SVG 20010904//EN"
 "http://www.w3.org/TR/2001/REC-SVG-20010904/DTD/svg10.dtd">
<svg version="1.0" xmlns="http://www.w3.org/2000/svg"
 width="436.000000pt" height="436.000000pt" viewBox="0 0 436.000000 436.000000"
 preserveAspectRatio="xMidYMid meet">

<g transform="translate(0.000000,436.000000) scale(0.100000,-0.100000)"
fill="#000000" stroke="none">
<path d="M2040 3840 l0 -50 -100 0 -100 0 0 -50 0 -50 -50 0 -50 0 0 -50 0
-50 -100 0 -100 0 0 -50 0 -50 -100 0 -100 0 0 -50 0 -50 -50 0 -50 0 0 -50 0
-50 -50 0 -50 0 0 -50 0 -50 -50 0 -50 0 0 -50 0 -50 -50 0 -50 0 0 -100 0
-100 -50 0 -50 0 0 -150 0 -150 -50 0 -50 0 0 -500 0 -500 -100 0 -100 0 0
-150 0 -150 50 0 50 0 0 -50 0 -50 50 0 50 0 0 -50 0 -50 50 0 50 0 0 -50 0
-50 50 0 50 0 0 -50 0 -50 50 0 50 0 0 -50 0 -50 50 0 50 0 0 -100 0 -100 -50
0 -50 0 0 -295 0 -295 1100 0 1100 0 0 45 0 45 -50 0 -50 0 0 300 0 300 50 0
50 0 0 50 0 50 50 0 50 0 0 50 0 50 50 0 50 0 0 50 0 50 50 0 50 0 0 50 0 50
50 0 50 0 0 50 0 50 50 0 50 0 0 50 0 50 50 0 50 0 0 150 0 150 -50 0 -50 0 0
50 0 50 -100 0 -100 0 0 450 0 450 -50 0 -50 0 0 150 0 150 -50 0 -50 0 0 200
0 200 50 0 50 0 0 50 0 50 50 0 50 0 0 150 0 150 -300 0 -300 0 0 50 0 50 -50
0 -50 0 0 50 0 50 -150 0 -150 0 0 -50 0 -50 -100 0 -100 0 0 50 0 50 -150 0
-150 0 0 -50z m700 -300 l0 -150 150 0 150 0 0 50 0 50 100 0 100 0 0 -100 0
-100 -50 0 -50 0 0 -50 0 -50 -150 0 -150 0 0 -50 0 -50 100 0 100 0 0 -50 0
-50 50 0 50 0 0 -100 0 -100 50 0 50 0 0 -150 0 -150 50 0 50 0 0 -350 0 -350
-50 0 -50 0 0 -100 0 -100 -100 0 -100 0 0 -100 0 -100 -50 0 -50 0 0 -50 0
-50 -100 0 -100 0 0 -50 0 -50 -500 0 -500 0 0 50 0 50 -100 0 -100 0 0 50 0
50 -50 0 -50 0 0 50 0 50 -50 0 -50 0 0 50 0 50 -150 0 -150 0 0 100 0 100
-50 0 -50 0 0 350 0 350 50 0 50 0 0 150 0 150 50 0 50 0 0 100 0 100 50 0 50
0 0 50 0 50 50 0 50 0 0 50 0 50 50 0 50 0 0 50 0 50 100 0 100 0 0 50 0 50
100 0 100 0 0 50 0 50 50 0 50 0 0 50 0 50 50 0 50 0 0 -100 0 -100 50 0 50 0
0 50 0 50 150 0 150 0 0 50 0 50 100 0 100 0 0 50 0 50 50 0 50 0 0 -150z
m-300 -2500 l0 -50 -200 0 -200 0 0 50 0 50 200 0 200 0 0 -50z"/>
<path d="M2640 3340 l0 -50 -50 0 -50 0 0 -50 0 -50 50 0 50 0 0 50 0 50 50 0
50 0 0 50 0 50 -50 0 -50 0 0 -50z"/>
<path d="M2640 2340 l0 -50 100 0 100 0 0 50 0 50 -100 0 -100 0 0 -50z"/>
<path d="M1540 2140 l0 -50 100 0 100 0 0 50 0 50 -100 0 -100 0 0 -50z"/>
<path d="M2140 1940 l0 -50 50 0 50 0 0 -50 0 -50 -100 0 -100 0 0 -50 0 -50
-150 0 -150 0 0 50 0 50 -50 0 -50 0 0 50 0 50 -100 0 -100 0 0 -50 0 -50 100
0 100 0 0 -50 0 -50 50 0 50 0 0 -50 0 -50 100 0 100 0 0 -50 0 -50 50 0 50 0
0 -50 0 -50 50 0 50 0 0 -50 0 -50 150 0 150 0 0 50 0 50 50 0 50 0 0 50 0 50
50 0 50 0 0 50 0 50 50 0 50 0 0 50 0 50 50 0 50 0 0 50 0 50 50 0 50 0 0 50
0 50 -50 0 -50 0 0 -50 0 -50 -50 0 -50 0 0 -50 0 -50 -100 0 -100 0 0 50 0
50 -100 0 -100 0 0 50 0 50 50 0 50 0 0 50 0 50 -150 0 -150 0 0 -50z m100
-300 l0 -50 50 0 50 0 0 50 0 50 100 0 100 0 0 -100 0 -100 -100 0 -100 0 0
-50 0 -50 -50 0 -50 0 0 50 0 50 -50 0 -50 0 0 50 0 50 -50 0 -50 0 0 50 0 50
100 0 100 0 0 -50z"/>
</g>
</svg>
